# xmcd CD database file
#
# Track frame offsets:
#	183
#	22483
#	42733
#	66958
#	88708
#	109333
#	125233
#	144133
#	170083
#	188458
#	206683
#	234583
#
# Disc length: 3392 seconds
#
# Revision: 0
# Processed by: cddbd v1.5.2PL0 Copyright (c) Steve Scherf et al.
# Submitted via: CDex 1.51
#
DISCID=b80d3e0c
DTITLE=Various Artist - Musica latina
DYEAR=1900
DGENRE=Salsa
TTITLE0=Fania all stars - Djobi djoba
TTITLE1=Celia Cruz - No me cambio camino
TTITLE2=Hector Lavoe - En el fiando
TTITLE3=Pete Conde - Tumbakutun
TTITLE4=Celia Cruz and Ray Barretto - El chisme
TTITLE5=Ismael Miranda - La cosa no es como antes
TTITLE6=Ray Barretto - Indestructible
TTITLE7=Celia, Ray and Adalberto - Nadie se salva de la rumba
TTITLE8=Johnny Pacheco - La esencia del guaguanco
TTITLE9=Willie Colon canta Hector Lavoe - El malo
TTITLE10=Sonora Poncena - Timbalero
TTITLE11=Willie Colon - Abuelita
EXTD=
EXTT0=
EXTT1=
EXTT2=
EXTT3=
EXTT4=
EXTT5=
EXTT6=
EXTT7=
EXTT8=
EXTT9=
EXTT10=
EXTT11=
PLAYORDER=
